<?xml version="1.0" encoding="UTF-8"?>
<svg width="33px" height="42px" viewBox="0 0 33 42" version="1.1" xmlns="http://www.w3.org/2000/svg" xmlns:xlink="http://www.w3.org/1999/xlink">
    <!-- Generator: Sketch 43 (38999) - http://www.bohemiancoding.com/sketch -->
    <title>Heart Lines Copy</title>
    <desc>Created with Sketch.</desc>
    <defs></defs>
    <g id="Page-1" stroke="none" stroke-width="1" fill="none" fill-rule="evenodd">
        <path d="M31.5415616,41.2379902 C31.8841112,41.2896877 32.7875502,41.8176701 32.1863058,41.734082 C17.8376852,39.7392621 11.7762667,32.9009936 11.5139215,32.6742721 C6.19560118,28.0781232 1.87337577,21.9749623 0.627466091,14.4023977 C0.0768397092,11.0557234 1.54800889,6.80048282 4.60120698,4.46628423 C8.03021579,1.84477482 12.3502923,2.08931622 16.5132617,5.75277785 C16.6595595,5.88152165 17.1571454,6.34814138 17.2557129,6.44681916 C21.643929,10.8399474 20.6203272,16.1009144 17.7388471,16.8495144 C16.0065166,17.2995688 14.3197288,14.865912 14.3337955,12.9048204 C14.3632872,8.79327493 16.3244427,6.0431835 16.5132617,5.75277785 C16.7334203,5.41417156 16.964619,5.06864452 17.2069397,4.71625568 C21.537164,-1.58086506 29.9115946,-1.12633155 32.1863058,5.09578536 C34.7339654,12.0645101 28.591853,22.1899471 13.1786546,32.7553898 C12.8929735,32.9512186 11.8257498,33.6684841 11.5793015,33.8312042 C9.55206902,35.1697053 7.53233584,36.3491255 5.52270816,37.3780371 C0.74256382,39.8254286 2.82726154,37.5885384 4.22742782,36.9020913 C6.48963345,35.7930197 8.7588394,34.4951346 11.0283079,32.9966946 C11.1911678,32.8891647 11.3530386,32.7816896 11.5139215,32.6742721 C11.8042523,32.4804255 12.0913656,32.2867669 12.3752673,32.0933139 C27.6266091,21.7009226 32.2428399,12.9921853 31.2624187,5.75277785 C30.6379834,1.14196186 22.8151464,-2.38615084 17.1173824,6.33242025 C16.9179988,6.63751179 16.325639,6.24005943 16.2272286,6.15170042 C12.3773642,2.69504995 8.36719038,2.36747378 5.2949169,4.71625568 C2.54407556,6.8192997 1.70141836,11.1495548 2.11080427,13.9449376 C3.20210657,21.396605 7.03651003,27.8933394 12.3120708,32.3796556 C12.5760583,32.6041495 18.1346936,39.2146301 31.5415616,41.2379902 Z M17.6202517,16.5730015 C19.4564734,16.5730015 22.3700253,12.2008858 16.9073216,6.6785104 C13.3423905,14.0461639 16.2042822,16.5730015 17.6202517,16.5730015 Z" id="Heart-Lines-Copy" fill="#000000" fill-rule="nonzero"></path>
    </g>
</svg>