<svg width="518" height="56" viewBox="0 0 518 56" xmlns="http://www.w3.org/2000/svg"><title>Group</title><g fill-rule="nonzero" fill="#000"><path d="M320.04 35.872c.342-.59.574-1.105.696-1.547.122-.442.183-.835.183-1.18-.05-.637-.38-.65-.99-.036-.61.613-1.33 1.558-2.158 2.835-.83 1.277-1.708 2.75-2.635 4.42-.927 1.67-1.72 3.23-2.378 4.677-.66 1.45-1.11 2.64-1.355 3.573-.244.933-.122 1.3.366 1.105.44-.148.94-.455 1.5-.92.562-.468 1.16-1.008 1.794-1.622.634-.613 1.28-1.264 1.94-1.952.658-.687 1.256-1.35 1.792-1.988.488-1.572 1.147-3.487 1.976-5.746.83-2.26 1.78-4.665 2.854-7.22 1.074-2.552 2.27-5.167 3.586-7.843 1.318-2.678 2.732-5.244 4.245-7.7 1.512-2.454 3.074-4.713 4.684-6.776 1.61-2.062 3.27-3.732 4.977-5.01 1.464-1.128 3.11-1.95 4.94-2.466 1.83-.516 3.403-.614 4.72-.295 1.318.32 2.17 1.13 2.562 2.43.39 1.302-.075 3.205-1.392 5.71-1.707 3.192-3.622 6.027-5.745 8.507-2.122 2.48-4.354 4.825-6.696 7.035-2.342 2.21-4.72 4.37-7.135 6.482s-4.745 4.395-6.99 6.85c-.097.246-.304.872-.62 1.88-.32 1.005-.648 2.16-.99 3.46-.34 1.302-.658 2.665-.95 4.09-.293 1.423-.464 2.688-.513 3.792-.05 1.104.06 1.94.328 2.504.27.565.818.65 1.647.258.83-.393 1.903-1.056 3.22-1.99 1.317-.932 2.683-2.012 4.098-3.24 1.22-1.08 2.427-2.247 3.623-3.5 1.195-1.25 2.33-2.442 3.403-3.572.802-.845 1.537-1.65 2.204-2.412.083-.095-.04.105-.186.384-.05.1-.167.363-.237.482-.265.452-.32.722-.32.722s-.694.783-1.06 1.193c-1.048 1.177-2.182 2.38-3.402 3.608-1.22 1.228-2.44 2.406-3.66 3.536-1.706 1.522-3.353 2.823-4.94 3.904-1.584 1.08-2.792 1.67-3.62 1.768-1.22.147-2.172-.074-2.855-.663-.683-.59-1.196-1.388-1.537-2.394-.342-1.008-.525-2.113-.55-3.316-.024-1.203.037-2.32.184-3.352-.44.54-.988 1.167-1.647 1.88-.658.71-1.354 1.374-2.086 1.988-.73.613-1.414 1.14-2.05 1.583-.633.442-1.12.614-1.462.516-1.27-.148-2.16-.652-2.672-1.51-.512-.86-.756-1.916-.73-3.168.023-1.253.304-2.615.84-4.09.537-1.472 1.22-2.896 2.05-4.27.244-.526.365-.664.365-.664.635-.933 1.318-1.792 2.05-2.578.73-.786 1.5-1.424 2.305-1.915.805-.49 1.622-.798 2.45-.92.83-.124 1.66-.013 2.49.33.34.246.56.467.658.664.1.244.196.563.294.956 0 .835-.317 1.817-.95 2.947l-.514-.22zm5.71 0c1.95-2.063 4.097-4.138 6.44-6.225 2.34-2.087 4.682-4.26 7.024-6.52 2.342-2.258 4.586-4.652 6.733-7.18 2.147-2.53 4-5.292 5.562-8.287 1.12-2.112 1.573-3.72 1.353-4.825-.22-1.105-.817-1.756-1.793-1.952-.976-.197-2.208.06-3.696.773-1.488.712-2.915 1.805-4.28 3.278-1.22 1.326-2.453 2.873-3.697 4.64-1.244 1.77-2.44 3.622-3.586 5.562-1.145 1.94-2.243 3.93-3.292 5.967-1.05 2.038-2.012 3.977-2.89 5.82-.88 1.84-1.647 3.534-2.306 5.08-.66 1.548-1.183 2.837-1.573 3.87zm28.54 7.44c-.683 1.522-1.232 2.982-1.647 4.382-.414 1.4-.646 2.59-.695 3.573-.05.982.134 1.67.55 2.062.414.392 1.158.367 2.23-.075.83-.343 1.843-.994 3.038-1.952 1.196-.957 2.476-2.05 3.842-3.278 1.22-1.08 2.452-2.246 3.696-3.498 1.244-1.253 2.415-2.443 3.513-3.573 1.098-1.13 2.073-2.185 2.927-3.167.854-.982.83-.844 1.27-1.434l-.193.526-.113.418-.072.257s-.244.36-.452.6c-.853.982-1.83 2.05-2.927 3.204-1.098 1.153-2.27 2.356-3.513 3.61-1.244 1.25-2.476 2.417-3.696 3.497-1.707 1.572-3.293 2.898-4.756 3.978s-2.61 1.67-3.44 1.768c-1.707.245-2.987.086-3.84-.48-.855-.564-1.404-1.374-1.648-2.43-.244-1.055-.244-2.26 0-3.61s.61-2.737 1.098-4.16c0-.1.05-.246.146-.443-.44.737-.988 1.547-1.646 2.43-.66.885-1.342 1.72-2.05 2.505-.707.786-1.402 1.425-2.085 1.916-.683.492-1.317.713-1.903.664-1.464-.148-2.44-.81-2.927-1.99-.488-1.178-.598-2.565-.33-4.16.27-1.597.83-3.267 1.684-5.01.852-1.743 1.865-3.29 3.036-4.64 1.17-1.35 2.44-2.358 3.805-3.02 1.367-.664 2.71-.7 4.026-.11.196.097.44.294.732.588.147.295.22.614.22.958.05.785-.244 1.792-.878 3.02l-.513-.295c.537-1.03.805-1.915.805-2.652-.05-.638-.378-.675-.988-.11-.61.565-1.354 1.473-2.232 2.725-.878 1.253-1.78 2.7-2.708 4.346-.927 1.645-1.732 3.205-2.415 4.678-.684 1.473-1.16 2.7-1.428 3.683-.268.982-.134 1.448.403 1.4.634-.05 1.305-.38 2.012-.995.708-.614 1.403-1.338 2.086-2.173.683-.835 1.354-1.73 2.013-2.69.658-.956 1.256-1.803 1.793-2.54.486-1.277.926-2.455 1.316-3.536.39-1.08.512-1.963.366-2.65.634 0 1.232.135 1.793.405.56.27 1 .712 1.317 1.326.317.614.45 1.425.403 2.43-.05 1.008-.39 2.248-1.025 3.72zm33.81 1.767c-.634 2.062-1 3.694-1.097 4.897-.098 1.204.024 2.063.366 2.58.34.514.853.723 1.536.625.683-.1 1.463-.393 2.342-.884.878-.49 1.817-1.117 2.817-1.88 1-.76 1.988-1.582 2.964-2.466 1.22-1.08 2.414-2.247 3.585-3.5 1.17-1.25 2.257-2.442 3.257-3.572.78-.88 2.14-2.508 2.14-2.508l-.572 1.035-.22.496-.214.57s-.457.538-.695.813c-1 1.154-2.085 2.357-3.256 3.61-1.17 1.25-2.366 2.417-3.586 3.498-2.586 2.357-4.89 4.027-6.916 5.01-2.024.98-3.67 1.325-4.94 1.03-1.268-.295-2.11-1.215-2.524-2.762-.415-1.547-.28-3.696.402-6.446.342-1.375.78-2.725 1.317-4.05.537-1.327 1.098-2.628 1.684-3.905.586-1.276 1.16-2.516 1.72-3.72.562-1.202 1.013-2.368 1.354-3.498.147-.442.086-.724-.183-.847-.267-.123-.62-.012-1.06.332-.683.54-1.415 1.29-2.195 2.246-.78.958-1.574 2.038-2.38 3.24-.804 1.205-1.584 2.457-2.34 3.758l-2.16 3.72c-1.414 2.456-2.512 4.396-3.293 5.82-.78 1.424-1.683 2.112-2.707 2.063-1.17-.05-1.94-.49-2.306-1.326-.367-.835-.49-1.903-.367-3.204.122-1.302.403-2.714.842-4.236.44-1.522.878-2.995 1.317-4.42.44-1.424.805-2.676 1.098-3.756.293-1.08.366-1.84.22-2.283.585 0 1.158.148 1.72.442.56.294.987.785 1.28 1.472.293.688.403 1.547.33 2.58-.074 1.03-.403 2.282-.99 3.755-.243.59-.5 1.302-.767 2.136-.268.835-.512 1.682-.732 2.542-.218.86-.4 1.67-.548 2.43-.146.762-.23 1.363-.256 1.805-.024.442.05.675.22.7.17.024.475-.282.914-.92.635-.983 1.476-2.456 2.525-4.42 1.05-1.965 2.208-3.99 3.476-6.077 1.27-2.088 2.563-3.99 3.88-5.71 1.317-1.718 2.537-2.847 3.66-3.388.634-.294 1.243-.368 1.83-.22.487.098.95.33 1.39.7.44.368.756.86.95 1.472.196.614.245 1.388.147 2.32-.097.934-.415 2.04-.95 3.316L388.1 45.08zm21.81 5.303c-1.367-.05-2.477-.442-3.33-1.18-.854-.736-1.464-1.656-1.83-2.76-.366-1.106-.464-2.346-.293-3.72.17-1.376.622-2.702 1.354-3.98.587-1.08 1.257-2.11 2.014-3.092.756-.982 1.585-1.84 2.488-2.578.902-.736 1.866-1.29 2.89-1.657 1.025-.368 2.123-.48 3.294-.33.44.097.854.28 1.244.55s.695.615.915 1.032c.22.418.305.896.256 1.437-.048.54-.316 1.08-.804 1.62-.683.688-1.61 1.412-2.78 2.173-1.172.76-2.587 1.338-4.246 1.73-.732 1.23-1.39 2.407-1.976 3.537-.585 1.13-.975 2.16-1.17 3.094-.196.933-.135 1.706.182 2.32.317.614 1.013 1.02 2.086 1.215 1.366.246 2.696 0 3.99-.736 1.29-.737 2.658-1.682 4.097-2.836 1.438-1.153 2.987-2.38 4.646-3.682 1.66-1.302 3.5-2.406 5.525-3.315 2.026-.908 4.27-1.46 6.734-1.657 2.464-.197 5.257.22 8.38 1.252 4.244 1.424 8.49 2.995 12.733 4.714 4.245 1.72 9.17 2.91 12.77 3.757 6.1 1.62 15.827 3.19 20.755 2.503 4.927-.687 11.17-1.694 14.73-3.904 3.27-2.014 6.488-3.978 8.17-6.556 1.684-2.58 3.483-4.997 3.85-7.698.365-2.7.5-3.108-.33-5.662-.168-.518-.628-1.548-.697-1.88-.145-.697.507-1.3.697-1.084.167.19.587.303.914 1.29.88 2.652.366 4.537 0 7.336-.365 2.8-2.19 5.316-3.92 7.992-1.733 2.677-5.024 4.714-8.39 6.777-3.61 2.21-10.024 3.67-15.024 4.383-5 .712-14.814-.847-21.01-2.468-2.098-.54-4.208-1.19-6.33-1.952-2.123-.76-4.245-1.547-6.367-2.357-2.123-.81-4.257-1.607-6.404-2.393-2.146-.786-4.268-1.522-6.366-2.21-3.074-.982-5.818-1.362-8.233-1.142-2.414.22-4.597.762-6.55 1.62-1.95.86-3.72 1.916-5.305 3.168-1.585 1.253-3.11 2.456-4.574 3.61-1.462 1.154-2.902 2.1-4.317 2.836-1.414.735-2.902 1.03-4.464.883zm7.757-15.1c.34-.345.55-.762.622-1.253.072-.49.01-.896-.184-1.215-.195-.32-.5-.48-.915-.48-.414 0-.963.32-1.646.958-.634.64-1.292 1.45-1.976 2.43-.683.983-1.366 2.04-2.05 3.17 1.465-.394 2.72-.96 3.77-1.696 1.05-.736 1.842-1.375 2.38-1.915z"/><path d="M282.542 44.238c14.037 2.118 30.38-1.695 37.52-8.38l.49.23c-6.634 6.235-23.113 10.628-37.366 8.646-14.348-1.995-20.41-8.833-20.672-9.06-5.318-4.596-9.64-10.7-10.887-18.272-.55-3.346.92-7.602 3.974-9.936 3.43-2.62 7.75-2.377 11.913 1.287.147.13.644.595.743.694 4.388 4.393 3.364 9.654.483 10.403-1.733.45-3.42-1.984-3.406-3.945.03-4.112 1.99-6.862 2.18-7.152.22-.34.45-.684.693-1.037 4.33-6.297 12.705-5.842 14.98.38 2.547 6.97-3.595 17.094-19.008 27.66-.287.195-1.354.912-1.6 1.075-15.123 9.986-29.828 11.118-43.034 6.957-1.527-.48-5.904-1.947-5.972-1.985v-.456c.056.03 4.34 1.126 5.833 1.596 12.938 4.077 27.774 2.858 42.62-6.945.164-.108.326-.215.487-.323.29-.194.577-.387.86-.58 15.253-10.393 19.87-19.102 18.888-26.34-.624-4.612-8.447-8.14-14.145.578-.2.306-.79-.092-.89-.18-3.85-3.457-7.86-3.785-10.932-1.436-2.75 2.103-3.594 6.434-3.184 9.23 1.092 7.45 4.927 13.947 10.202 18.434.264.224 5.823 6.835 19.23 8.858zM268.62 19.573c1.836 0 4.75-4.372-.713-9.894-3.565 7.366-.703 9.893.713 9.893z"/><path d="M115.19 16.547c-1.268 1.375-2.597 2.75-3.988 4.125-1.39 1.375-2.805 2.726-4.245 4.052-1.44 1.325-2.854 2.602-4.244 3.83-1.39 1.228-2.696 2.382-3.915 3.462l-3.22 2.873c-.196.588-.452 1.386-.77 2.393-.316 1.006-.645 2.074-.987 3.204-.34 1.13-.67 2.283-.987 3.462-.317 1.177-.585 2.246-.805 3.203-.22.958-.354 1.768-.402 2.43-.05.664.024 1.02.22 1.07.146.048.45-.296.914-1.032.463-.736 1.025-1.67 1.683-2.798.66-1.13 1.378-2.357 2.16-3.683.78-1.327 1.56-2.53 2.34-3.61.234-.324.902-1.207 1.94-2.358.797-.883 2.08-2.47 2.538-2.95.94-.983 1.866-1.703 2.21-2.016.733-.663 1.8-.896 2.336-.7.244.393.944 1.334.846 1.653-.098.318-.317.478-.66.478-.535.05-.59.115-1.776.855-.702.396-1.47.848-2.236 1.648-.426.446-2.036 1.692-2.72 2.358-1.09 1.06-2.302 2.296-2.55 2.652.733.098 1.403.528 2.013 1.29.61.76.72 1.902.33 3.424-.44 1.62-.647 3.02-.622 4.2.025 1.177.184 2.11.476 2.798.293.687.708 1.142 1.244 1.363.537.22 1.147.16 1.83-.185.83-.392 1.842-1.055 3.037-1.988 1.195-.933 2.476-2.038 3.842-3.315 1.22-1.08 2.426-2.235 3.622-3.462 1.195-1.228 2.317-2.42 3.366-3.573 1.05-1.154 1.988-2.222 2.818-3.204.83-.982 1.488-1.768 1.976-2.357l-1.976 2.358c-.134.18-.36.38-.524.613-.145.205-.23.436-.364.692-.116.222-.237.432-.35.685-.095.214-.175.47-.337.663-.828.982.32-.233-.73.92-1.05 1.155-2.183 2.358-3.403 3.61-1.22 1.252-2.44 2.418-3.66 3.5-1.706 1.57-3.292 2.896-4.756 3.976-1.462 1.08-2.61 1.67-3.438 1.768-1.513.246-2.67.16-3.476-.258-.805-.417-1.38-1.03-1.72-1.84-.342-.81-.5-1.732-.476-2.763.024-1.032.098-2.063.22-3.094.122-1.032.23-1.99.33-2.874.096-.884.096-1.547 0-1.99-.684.984-1.355 2.027-2.014 3.132-.658 1.105-1.268 2.1-1.83 2.983-.56.885-1.073 1.61-1.536 2.174-.464.565-.842.823-1.134.774-.83-.148-1.452-.59-1.867-1.326-.415-.737-.66-1.707-.732-2.91-.074-1.203 0-2.578.22-4.125.22-1.547.572-3.204 1.06-4.972-1.854.54-4.013.614-6.476.22-2.464-.392-5.087-1.03-7.868-1.914-2.146-.637-4.28-1.4-6.403-2.283l-6.366-2.65c-2.122-.885-4.232-1.732-6.33-2.543-.857-.33-6.13-1.84-9.017-2.438-2.887-.598-6.497-.837-9.29-1.03-5.525-.38-11.143-.16-13.8.21-4.93.688-9.325 1.675-12.887 3.884-3.268 2.014-6.487 4.162-8.17 6.74-1.07 1.64-1.79 2.987-2.248 4.457-.16.52-.31 2.028-.14 2.817.14.645.166 1.153.185 1.457.017.267.036.935 0 1.085-.33 1.395-1.754.38-1.456-1.896.367-2.8 1.415-5.538 3.147-8.214 1.732-2.677 5.024-4.9 8.39-6.96 3.61-2.21 7.917-3.672 12.918-4.384 2.72-.387 8.448-.612 14.063-.23 4.712.32 9.33 1.148 12.158 1.887 2.098.54 4.208 1.215 6.33 2.025 2.123.81 4.245 1.657 6.367 2.54l6.367 2.653c2.123.884 4.257 1.645 6.404 2.284 2.83.933 5.49 1.583 7.977 1.952 2.49.368 4.587.257 6.295-.332.44-1.57.95-3.167 1.537-4.788.585-1.62 1.22-3.216 1.902-4.788 2.196-5.01 4.464-9.244 6.806-12.706 2.342-3.462 4.855-6.396 7.538-8.803 1.854-1.67 3.635-2.92 5.343-3.756 1.708-.834 3.196-1.276 4.465-1.325 1.268-.05 2.268.27 3 .957.732.688 1.037 1.695.915 3.02-.122 1.326-.707 2.972-1.756 4.936-1.05 1.964-2.72 4.174-5.013 6.63zM98.433 31.574c1.22-1.08 2.512-2.234 3.878-3.462 1.366-1.228 2.77-2.505 4.208-3.83 1.44-1.326 2.855-2.677 4.245-4.052 1.39-1.375 2.72-2.75 3.99-4.125 1.804-1.915 3.22-3.707 4.243-5.377 1.025-1.67 1.72-3.13 2.086-4.383.366-1.252.45-2.246.256-2.983-.195-.737-.634-1.13-1.317-1.18-1.61-.146-3.256.394-4.94 1.622-1.682 1.228-3.34 2.836-4.976 4.825-1.634 1.988-3.195 4.222-4.683 6.702-1.487 2.48-2.853 4.91-4.098 7.292-1.244 2.382-2.317 4.567-3.22 6.556-.902 1.99-1.573 3.474-2.012 4.456l2.342-2.062zm35.2 12.596c-.682 1.522-1.23 2.983-1.646 4.383-.415 1.4-.646 2.59-.695 3.572-.048.982.135 1.67.55 2.063.414.393 1.16.368 2.232-.074.83-.344 1.842-.994 3.037-1.952 1.194-.958 2.475-2.05 3.84-3.278 1.22-1.08 2.453-2.246 3.697-3.5 1.244-1.25 2.415-2.442 3.513-3.57 1.097-1.13 2.073-2.186 2.927-3.17.854-.98.838-.956 1.277-1.546 0 0-.137.25-.517 1.22-.173.438-.196.414-.205.45-.01.037.006.106-.116.246-.854.982-1.83 2.05-2.927 3.204-1.1 1.154-2.27 2.357-3.514 3.61-1.244 1.25-2.476 2.418-3.696 3.498-1.707 1.572-3.293 2.897-4.757 3.978-1.463 1.08-2.61 1.67-3.44 1.768-1.707.245-2.988.086-3.84-.48-.855-.564-1.404-1.374-1.648-2.43s-.244-2.26 0-3.61.61-2.737 1.098-4.16c0-.1.048-.247.146-.443-.44.736-.99 1.546-1.648 2.43-.658.884-1.34 1.718-2.05 2.504-.706.786-1.4 1.424-2.084 1.915-.683.49-1.318.71-1.903.662-1.464-.147-2.44-.81-2.928-1.99-.487-1.177-.597-2.564-.33-4.16.27-1.596.83-3.266 1.684-5.01.855-1.743 1.868-3.29 3.038-4.64 1.17-1.35 2.44-2.357 3.806-3.02 1.366-.663 2.708-.7 4.025-.11.194.098.438.294.73.59.147.293.22.613.22.956.05.786-.243 1.793-.878 3.02l-.512-.294c.537-1.03.805-1.915.805-2.652-.05-.638-.378-.675-.988-.11-.61.564-1.354 1.473-2.232 2.725-.878 1.252-1.78 2.7-2.708 4.346-.927 1.645-1.732 3.204-2.415 4.677-.683 1.474-1.16 2.7-1.427 3.683-.268.983-.134 1.45.403 1.4.634-.05 1.305-.38 2.012-.994.708-.615 1.403-1.34 2.086-2.174.683-.835 1.354-1.73 2.012-2.69.66-.957 1.257-1.804 1.793-2.54.49-1.277.928-2.456 1.32-3.536.39-1.08.51-1.964.365-2.652.634 0 1.23.135 1.793.405.56.27 1 .712 1.317 1.326.317.613.45 1.423.402 2.43-.048 1.007-.39 2.247-1.024 3.72zm23.42-17.163c.682-1.277 1.22-2.566 1.61-3.867.39-1.3.487-2.296.292-2.983.586 0 1.16.122 1.72.368.56.245 1 .675 1.317 1.29.318.613.477 1.4.477 2.356 0 .96-.293 2.125-.878 3.5-.1.295-.196.565-.294.81l8.27 1.326c1.317.197 3.098.418 5.342.663 2.244.245 4.77.43 7.575.552 2.805.122 5.818.147 9.038.073 3.22-.073 6.477-.307 9.77-.7 3.294-.392 6.538-.982 9.734-1.767 3.196-.786 6.172-1.83 8.928-3.13 2.757-1.302 5.196-2.898 7.32-4.79 2.12-1.89 3.792-4.16 5.012-6.813.05-.196.17-.356.366-.478.195-.123.39-.172.585-.148.195.024.342.11.44.257.097.147.097.344 0 .59-1.904 3.486-4.453 6.36-7.648 8.618-3.196 2.26-6.758 4.05-10.685 5.377-3.928 1.326-8.05 2.26-12.368 2.8s-8.563.834-12.734.883c-4.17.05-8.1-.098-11.782-.442-3.684-.344-6.843-.712-9.478-1.105l-3.952-.59c-1.317-.196-2.634-.417-3.952-.662-.44 1.13-.987 2.357-1.646 3.683-.66 1.325-1.354 2.712-2.086 4.16-.732 1.45-1.464 2.947-2.195 4.494-.733 1.547-1.392 3.08-1.977 4.604-.537 1.326-.866 2.566-.988 3.72-.122 1.154-.073 2.11.146 2.872.22.762.6 1.302 1.135 1.62.537.32 1.22.283 2.05-.11 1.414-.59 2.976-1.62 4.683-3.093 1.708-1.474 3.38-3.106 5.013-4.9 1.636-1.79 3.185-3.584 4.648-5.376.455-.555 1.285-1.58 1.285-1.58l-.345.695s-.247.417-.367.695c-.05.117-.146.314-.207.495-.064.188-.18.45-.18.45s.29-.287-.807 1.014c-1.097 1.3-2.28 2.663-3.55 4.087-1.267 1.424-2.56 2.738-3.878 3.94-1.317 1.204-2.598 2.223-3.842 3.058-1.244.835-2.378 1.326-3.403 1.473-1.463.246-2.695.147-3.696-.295-1-.442-1.756-1.105-2.268-1.99-.514-.882-.77-1.914-.77-3.092 0-1.178.244-2.356.732-3.535.927-2.21 1.744-4.15 2.452-5.82.707-1.67 1.354-3.19 1.94-4.566.585-1.376 1.158-2.653 1.72-3.83.56-1.18 1.133-2.36 1.72-3.537-2.93-.393-5.734-.688-8.417-.884-2.684-.197-5.135-.16-7.355.11-2.22.27-4.184.81-5.89 1.62-1.512.717-2.737 1.75-3.675 3.103-.122.175-.13.21-.243.396l-.177-.116-.306-.144c1.27-1.62 2.742-2.75 4.547-3.608 1.805-.86 3.818-1.437 6.038-1.73 2.22-.296 4.647-.37 7.28-.222 2.636.147 5.44.442 8.417.884l.44-.737zm17.93 24.234c-1.367-.048-2.477-.44-3.33-1.177-.854-.737-1.464-1.658-1.83-2.763-.366-1.104-.464-2.344-.293-3.72.17-1.374.62-2.7 1.353-3.977.586-1.08 1.256-2.112 2.013-3.094.756-.983 1.585-1.842 2.488-2.58.902-.736 1.866-1.288 2.89-1.656 1.025-.37 2.123-.48 3.294-.332.44.098.854.283 1.244.553.39.27.695.614.915 1.03.22.418.305.897.256 1.437-.05.54-.317 1.08-.805 1.62-.683.688-1.61 1.413-2.78 2.174-1.172.76-2.587 1.338-4.246 1.73-.732 1.23-1.39 2.407-1.976 3.537-.585 1.13-.975 2.16-1.17 3.093-.196.933-.135 1.707.182 2.32.317.614 1.013 1.02 2.086 1.216 1.366.246 2.696 0 3.99-.737 1.29-.736 2.657-1.682 4.097-2.836 1.44-1.155 2.99-2.382 4.648-3.684 1.66-1.3 3.5-2.406 5.525-3.314 2.025-.91 4.27-1.46 6.733-1.658 2.464-.196 5.257.22 8.38 1.253 4.244 1.424 8.523 2.243 12.767 3.962 4.245 1.717 1.233 1.193-.89.383-2.122-.81-3.422-.974-5.568-1.76-2.147-.785-4.43-1.31-6.53-1.997-3.073-.982-5.817-1.363-8.232-1.142-2.415.22-4.598.76-6.55 1.62-1.952.86-3.72 1.916-5.306 3.168l-4.574 3.61c-1.463 1.153-2.903 2.1-4.318 2.835-1.414.737-2.902 1.032-4.464.884zm7.757-15.1c.34-.343.548-.76.62-1.25.074-.492.013-.898-.182-1.217-.195-.32-.5-.48-.915-.48-.415 0-.964.32-1.647.96-.634.637-1.292 1.448-1.976 2.43-.683.982-1.366 2.038-2.05 3.167 1.465-.393 2.72-.957 3.77-1.694 1.05-.737 1.842-1.375 2.38-1.915z"/></g></svg>