<?xml version="1.0" standalone="no"?>
<!DOCTYPE svg PUBLIC "-//W3C//DTD SVG 20010904//EN"
 "http://www.w3.org/TR/2001/REC-SVG-20010904/DTD/svg10.dtd">
<svg version="1.0" xmlns="http://www.w3.org/2000/svg"
 width="672.000000pt" height="672.000000pt" viewBox="0 0 672.000000 672.000000"
 preserveAspectRatio="xMidYMid meet">
<metadata>
Created by potrace 1.11, written by Peter Selinger 2001-2013
</metadata>
<g transform="translate(0.000000,672.000000) scale(0.100000,-0.100000)"
fill="#000000" stroke="none">
<path d="M4617 6684 c-2 -2 -36 -8 -77 -14 -191 -29 -358 -91 -535 -198 -216
-131 -392 -303 -555 -543 -45 -65 -85 -119 -90 -119 -5 0 -53 35 -107 78 -322
257 -648 389 -978 396 -266 5 -505 -67 -742 -225 -94 -62 -112 -78 -219 -184
-141 -139 -248 -289 -323 -450 -18 -38 -42 -89 -52 -111 -11 -23 -22 -50 -24
-60 -2 -11 -12 -39 -21 -64 -9 -25 -18 -52 -20 -60 -53 -204 -67 -299 -68
-469 -1 -111 3 -183 16 -255 10 -56 21 -113 23 -129 14 -73 35 -165 44 -190 6
-15 8 -27 6 -27 -2 0 0 -11 5 -25 5 -14 12 -36 14 -48 12 -61 110 -361 141
-432 7 -16 32 -77 56 -135 45 -110 208 -436 240 -482 11 -14 19 -28 19 -31 0
-9 100 -170 117 -189 9 -10 13 -18 9 -18 -4 0 4 -14 18 -31 14 -17 26 -34 26
-39 0 -5 6 -15 13 -22 7 -7 33 -42 57 -78 25 -36 47 -67 50 -70 3 -3 32 -40
64 -83 185 -249 547 -635 779 -832 26 -22 47 -45 47 -51 0 -10 -182 -134 -196
-134 -3 0 -10 -5 -17 -10 -26 -23 -244 -157 -415 -255 -65 -38 -322 -175 -449
-240 -84 -43 -164 -88 -178 -99 -89 -72 -114 -95 -138 -125 -127 -161 228 -26
821 312 213 122 328 191 414 249 31 21 61 38 67 38 5 0 11 3 13 8 4 10 85 62
97 62 5 0 11 3 13 8 2 4 24 22 49 39 l47 32 28 -25 c16 -14 49 -42 74 -62 25
-20 52 -43 60 -51 28 -28 235 -178 325 -237 50 -32 92 -61 95 -64 6 -6 8 -7
175 -103 179 -104 569 -297 599 -297 7 0 16 -4 22 -9 5 -4 32 -16 59 -26 28
-10 55 -22 60 -25 12 -9 375 -139 405 -145 3 -1 41 -13 85 -27 140 -46 455
-129 580 -154 11 -2 31 -6 45 -9 14 -3 36 -7 50 -10 14 -3 39 -8 55 -12 39 -9
33 -8 88 -17 27 -4 59 -10 70 -12 12 -3 31 -7 42 -8 11 -2 34 -6 50 -9 17 -3
50 -9 75 -12 25 -3 73 -11 108 -17 94 -15 98 2 10 45 -29 14 -80 30 -113 36
-33 6 -73 13 -90 16 -16 3 -43 8 -60 10 -35 6 -54 9 -155 29 -41 8 -88 17
-105 20 -16 4 -41 9 -55 13 -14 3 -30 7 -37 9 -7 1 -42 10 -79 19 -37 9 -76
19 -86 21 -10 2 -26 6 -35 9 -10 2 -59 15 -109 28 -50 13 -96 27 -101 30 -5 3
-20 8 -34 11 -66 13 -462 153 -554 196 -11 5 -38 16 -60 25 -103 41 -414 192
-520 253 -27 16 -67 39 -87 50 -71 40 -173 106 -176 114 -2 4 -8 8 -14 8 -25
0 -335 230 -453 335 -33 30 -77 69 -97 87 l-37 33 79 55 c44 30 88 61 97 67
112 80 161 115 178 128 11 9 32 24 48 33 15 9 27 20 27 24 0 4 5 8 11 8 6 0
16 6 23 12 8 7 23 20 36 28 18 13 245 183 275 207 6 5 30 24 55 43 25 19 47
37 50 40 3 3 25 21 50 40 25 19 50 39 56 45 6 5 29 24 50 40 21 17 59 47 84
69 25 21 64 54 88 75 24 20 54 45 66 56 13 11 52 45 86 75 289 250 759 723
891 895 13 17 26 32 29 35 3 3 23 28 45 55 60 75 69 86 80 99 63 69 255 348
360 521 93 153 251 477 270 555 2 8 18 56 35 105 29 86 67 230 75 284 2 14 6
42 9 61 3 19 10 61 14 93 10 62 8 365 -2 407 -3 14 -8 42 -11 62 -11 89 -66
258 -117 364 -25 51 -97 175 -107 184 -3 3 -22 25 -42 50 -76 93 -227 230
-254 230 -7 0 -19 7 -26 16 -17 21 -178 96 -259 122 -68 20 -137 37 -205 48
-40 6 -303 13 -308 8z m216 -128 c252 -16 494 -128 662 -307 45 -48 75 -87
135 -179 29 -44 75 -170 84 -230 14 -90 16 -110 21 -180 10 -134 6 -296 -10
-415 -2 -16 -7 -57 -10 -90 -4 -33 -9 -63 -11 -66 -2 -4 -6 -24 -10 -45 -3
-22 -12 -66 -21 -99 -8 -33 -16 -65 -17 -72 -1 -7 -5 -16 -9 -19 -4 -4 -7 -16
-7 -26 0 -69 -196 -524 -298 -692 -23 -37 -42 -70 -42 -72 0 -17 -275 -416
-292 -422 -4 -2 -8 -10 -8 -17 0 -7 -3 -15 -8 -17 -4 -1 -49 -54 -100 -117
-239 -296 -545 -606 -927 -940 -16 -15 -70 -60 -120 -101 -49 -41 -92 -78 -95
-81 -8 -10 -155 -126 -330 -261 -91 -69 -176 -135 -190 -146 -58 -45 -489
-351 -541 -383 -25 -16 -26 -16 -104 55 -339 307 -619 644 -874 1053 -28 46
-51 86 -51 89 0 3 -9 18 -19 33 -24 34 -177 332 -215 421 -16 36 -37 83 -46
105 -118 264 -262 763 -305 1055 -3 19 -8 45 -10 56 -19 86 -26 358 -12 464 4
30 10 75 13 100 12 89 64 290 97 377 126 326 313 548 576 686 187 98 328 132
541 130 139 -1 350 -42 422 -83 10 -6 23 -10 29 -10 15 0 230 -108 250 -126 8
-8 19 -14 23 -14 11 0 209 -144 244 -177 15 -14 36 -32 48 -39 20 -14 20 -16
-55 -167 -65 -131 -148 -346 -158 -411 -2 -11 -10 -45 -18 -75 -50 -199 -64
-479 -31 -606 71 -272 274 -481 464 -477 54 1 135 25 163 49 8 7 20 13 26 13
5 0 40 29 76 65 63 64 132 176 152 250 4 17 9 35 11 40 30 105 37 294 15 419
-51 291 -206 575 -458 834 l-23 23 52 72 c79 111 155 204 248 301 88 93 284
256 307 256 7 0 13 4 13 9 0 16 265 141 355 166 92 26 117 31 220 41 33 3 61
7 63 9 2 2 9 2 15 0 7 -2 51 -6 100 -9z m-1204 -1141 c207 -273 304 -528 296
-779 -2 -61 -5 -118 -8 -126 -2 -8 -7 -33 -12 -55 -14 -73 -82 -201 -141 -264
-142 -154 -295 -160 -439 -17 -81 82 -137 195 -161 331 -17 94 -8 338 16 450
5 22 11 53 14 70 18 98 131 417 190 535 13 27 22 51 19 54 -4 3 -1 6 5 6 7 0
12 8 12 18 1 22 117 -102 209 -223z"/>
</g>
</svg>
